<?xml version="1.0" encoding="UTF-8"?>
<svg width="150px" height="210px" viewBox="0 0 150 210" version="1.1" xmlns="http://www.w3.org/2000/svg" xmlns:xlink="http://www.w3.org/1999/xlink">
    <!-- Generator: Sketch 58 (84663) - https://sketch.com -->
    <title>flame_loader</title>
    <desc>Created with Sketch.</desc>
    <defs>
        <linearGradient x1="50%" y1="0%" x2="50%" y2="100%" id="linearGradient-1">
            <stop stop-color="#11C893" offset="0%"></stop>
            <stop stop-color="#6664F5" offset="100%"></stop>
        </linearGradient>
    </defs>
    <g id="-ðŸ­-HM-DESIGN---Jack" stroke="none" stroke-width="1" fill="none" fill-rule="evenodd">
        <path d="M123.105075,84.0486187 C119.989944,98.4437998 106.815989,101.716063 103.824213,91.3471992 C103.021661,88.6013213 103.340707,85.0596486 104.69284,79.3802775 L105.141822,77.5539852 L106.101122,73.7499728 L106.390025,72.5661945 C106.860731,70.6042202 107.113088,69.3508714 107.3142,67.982408 L107.400916,67.3627108 C111.338731,39.7767156 96.8823862,19.4626668 68.5441941,4.3527927 L60.7606303,0.202610217 L64.3999429,8.23773829 C70.7171436,22.1852943 66.6590977,34.6662732 52.7338135,51.07615 L51.9465753,51.9964998 L51.0812839,52.992149 C49.1752389,55.1681194 47.0571914,57.4763677 44.5536571,60.1222175 L37.9011295,67.0521627 C36.0737328,68.9470557 34.559114,70.5150748 34.467155,70.6108326 L32.6919325,72.4673752 L31.5070986,73.7164405 C21.9779629,83.7979509 16.0144738,91.0097888 10.9676788,99.0621459 C3.77834528,110.533006 0,121.935554 0,134.086882 C0,175.987328 33.4476172,210 74.800749,210 C116.153881,210 149.601498,175.987328 149.601498,134.086882 C149.601498,125.754825 148.747384,119.158943 146.667855,112.721735 C143.302662,101.387991 136.264366,89.7900309 128.034843,82.4449551 L124.193954,79.0168561 L123.105075,84.0486187 Z M140.937274,114.498067 C142.825785,120.346731 143.601498,126.337168 143.601498,134.086882 C143.601498,172.69591 112.817465,204 74.800749,204 C36.7840331,204 6,172.69591 6,134.086882 C6,123.156148 9.4238136,112.82353 16.0516716,102.248526 L16.6214302,101.349801 L17.2249535,100.419748 C21.9972281,93.1519888 27.8516271,86.2545925 37.061877,76.5789606 L47.8500961,65.3632691 L48.3565841,64.8318043 C51.9349556,61.0639292 54.765871,57.9547415 57.3086273,54.9582988 C70.1375446,39.840406 75.5576133,27.0527161 72.5176344,13.5489164 C94.0399973,26.8846914 104.455009,43.7348373 101.549501,65.869628 L101.378397,67.1035149 L101.264627,67.8181887 C101.039808,69.137836 100.713668,70.5673612 100.088156,73.0656105 L99.0909659,77.0218988 L98.9849315,77.4550028 C97.2919004,84.4128388 96.8511152,88.8767001 98.062275,93.020508 C100.326263,100.867078 106.994677,104.762324 114.212693,102.96945 C119.770508,101.588951 124.53063,97.1444975 127.265924,90.7204488 L127.437755,90.3077251 C133.351321,96.8333768 138.341671,105.758546 140.937274,114.498067 Z" id="flame_loader" fill="url(#linearGradient-1)" fill-rule="nonzero"></path>
    </g>
</svg>